<svg width="398" height="315" viewBox="0 0 398 315" fill="none" xmlns="http://www.w3.org/2000/svg">
<path d="M38.2905 217.404C26.4111 167.105 42.5531 135.358 71.1189 118.629C71.6228 118.33 72.132 118.04 72.6466 117.748C113.963 94.4846 142.725 143.499 183.87 129.917C225.015 116.335 255.008 76.6123 310.256 72.3434C359.897 68.4971 420.558 181.242 301.66 245.981C199.183 288.601 78.285 300.748 38.2905 217.404Z" fill="#FDEDDE"/>
<path d="M195 284.124C302.695 284.124 390 280.99 390 277.124C390 273.258 302.695 270.124 195 270.124C87.3045 270.124 0 273.258 0 277.124C0 280.99 87.3045 284.124 195 284.124Z" fill="#DFE1E2"/>
<path d="M323.301 252.247C324.023 249.549 324.551 246.808 324.879 244.042C324.719 244.115 324.559 244.188 324.405 244.273C319.708 246.777 312.857 244.819 313.248 241.617C313.639 238.415 319.586 239.221 322.153 238.882C323.244 238.749 324.292 238.395 325.226 237.845C325.212 234.215 324.755 230.599 323.866 227.068C320.581 228.505 318.31 232.581 315.525 232.459C311.869 232.302 311.971 228.469 316.873 226.535C321.774 224.6 321.492 220.337 321.492 220.337C320.903 219.037 320.241 217.768 319.509 216.534C318.395 214.816 316.716 213.491 314.729 212.761C312.741 212.032 310.556 211.938 308.507 212.496C307.679 212.756 306.819 213.066 305.94 213.429C305.202 213.729 304.588 214.252 304.195 214.915C303.714 215.752 303.425 216.676 303.347 217.626C303.268 218.575 303.402 219.53 303.74 220.428C305.331 225.225 302.296 227.76 299.814 225.219C298.126 223.496 299.441 219.876 299.037 216.765C296.112 218.36 292.898 220.3 289.414 222.538C289.624 223.258 289.946 223.945 290.37 224.576C291.749 226.656 296.234 230.434 293.892 232.781C291.55 235.128 285.552 231.435 284.557 226.425C284.519 226.221 284.47 226.019 284.41 225.819C282.117 227.512 280.028 229.438 278.18 231.562C278.182 232.579 278.483 233.577 279.049 234.442C279.615 235.307 280.425 236.007 281.388 236.462C285.282 238.354 287.297 241.253 283.499 241.774C279.842 242.266 277.924 236.213 274.908 235.68C273.31 237.967 271.926 240.382 270.77 242.896C270.947 243.759 271.321 244.576 271.864 245.289C272.408 246.002 273.11 246.595 273.92 247.026C278.11 249.349 282.26 252.411 280.445 254.879C278.629 257.348 275.126 255.201 268.313 251.847L267.979 251.671C267.416 254.768 267.552 257.942 268.377 260.986C270.501 266.444 274.703 265.971 280.329 268.088C281.52 268.477 282.557 269.2 283.3 270.162C283.641 271.101 283.696 272.111 283.46 273.079H284.147L285.43 271.096L286.508 269.404C291.101 262.211 311.811 218.827 311.811 218.827C308.757 228.493 292.564 265.619 289.773 269.125C288.792 270.368 287.848 271.781 287.014 273.079H313.594C313.787 272.836 313.979 272.593 314.172 272.339C307.185 269.616 303.265 268.488 304.086 265.583C304.908 262.678 310.066 263.709 314.646 265.243C315.827 265.662 317.112 265.744 318.342 265.48C318.464 265.225 318.592 264.964 318.714 264.704C319.953 262.105 321.043 259.445 321.98 256.735C319.356 255.456 313.806 257.517 311.965 254.728C309.937 251.647 313.588 251.235 317.623 252.836C318.542 253.211 319.549 253.355 320.545 253.252C321.54 253.149 322.49 252.803 323.301 252.247ZM307.48 256.802C307.65 257.074 307.733 257.386 307.718 257.702C307.704 258.018 307.592 258.322 307.397 258.579C305.613 260.81 300.609 255.134 303.291 254.485C305.414 253.97 306.851 255.753 307.48 256.802ZM306.698 248.063C307.474 246.899 309.302 246.632 310.034 246.571C310.248 246.535 310.468 246.55 310.675 246.614C313.986 248.069 305.78 249.476 306.698 248.063ZM283.319 246.99C284.474 245.304 288.375 249.773 288.375 249.773C289.94 254.267 282.19 248.676 283.345 246.99H283.319ZM295.04 241.235C294.45 242.405 292.667 241.319 291.467 240.519C290.049 239.579 290.184 237.171 292.044 237.281C293.436 237.359 294.521 239.039 294.983 239.894C295.103 240.097 295.173 240.323 295.188 240.555C295.202 240.788 295.161 241.02 295.066 241.235H295.04Z" fill="#DFE1E2"/>
<path d="M286.963 273.085H284.115L285.398 271.102L286.476 269.41C291.069 262.217 311.779 218.833 311.779 218.833C308.725 228.499 292.532 265.626 289.741 269.131C288.734 270.374 287.784 271.787 286.963 273.085Z" fill="#BDC3CB"/>
<path d="M291.076 261.162C289.529 258.216 287.343 255.61 284.66 253.515C287.342 256.593 289.144 260.27 289.895 264.194L291.076 261.162Z" fill="#BDC3CB"/>
<path d="M292.692 262.375C296.097 261.691 299.616 261.691 303.021 262.375C298.817 262.297 294.661 263.234 290.947 265.098L292.692 262.375Z" fill="#BDC3CB"/>
<path d="M348.698 263.715C346.508 266.314 347.579 266.056 347.903 271.755C347.995 273.237 347.787 274.722 347.291 276.124H331.047C330.875 275.264 331.157 274.319 332.221 273.26C336.41 269.197 337.499 267.404 336.141 263.444C334.784 259.484 332.673 256.595 337.089 254.585C341.505 252.575 339.212 247.291 338.313 244.095C337.414 240.899 340.759 241.086 343.609 237.962C346.459 234.839 342.374 232.925 344.967 228.369C347.56 223.813 355.499 221.634 355.646 213.124C355.646 213.124 359.071 219.143 357.658 224.914C356.245 230.686 352.46 233.388 354.343 237.15C356.227 240.911 356.105 245.214 352.955 247.682C349.805 250.149 350.178 252.779 351.163 256.709C352.148 260.639 350.888 261.109 348.698 263.715Z" fill="#DFE1E2"/>
<path d="M340 276.124L351.276 231.417C351.289 231.366 351.311 231.319 351.341 231.278C351.371 231.236 351.408 231.202 351.451 231.176C351.493 231.15 351.54 231.133 351.589 231.127C351.637 231.121 351.687 231.125 351.734 231.139C351.827 231.168 351.905 231.235 351.953 231.326C352 231.416 352.012 231.523 351.987 231.623L340.76 276.124H340Z" fill="#BDC3CB"/>
<path d="M56.8184 263.693C58.9894 266.313 57.9281 266.052 57.6128 271.795C57.5182 273.289 57.7244 274.786 58.2192 276.198H74.3566C74.5264 275.331 74.2413 274.379 73.1861 273.311C69.0381 269.218 67.9526 267.411 69.3049 263.42C70.6573 259.43 72.7434 256.519 68.3589 254.493C63.9743 252.468 66.2545 247.143 67.146 243.929C68.0375 240.715 64.7203 240.867 61.9003 237.744C59.0804 234.62 63.1496 232.668 60.548 228.083C57.9463 223.498 50.1051 221.297 49.9595 212.722C49.9595 212.722 46.5696 218.786 47.9644 224.602C49.3592 230.418 53.1191 233.141 51.2513 236.931C49.3834 240.721 49.5047 245.057 52.6279 247.544C55.751 250.03 55.3811 252.68 54.4108 256.64C53.4405 260.6 54.6473 261.067 56.8184 263.693Z" fill="#DFE1E2"/>
<path d="M67.1339 276.198L54.7201 230.254C54.6917 230.151 54.6235 230.062 54.5303 230.009C54.4371 229.956 54.3266 229.941 54.2228 229.969C54.1213 230 54.0355 230.069 53.9836 230.162C53.9316 230.254 53.9174 230.364 53.9439 230.466L66.3031 276.186L67.1339 276.198Z" fill="#BDC3CB"/>
<path d="M29.929 276.95L29.8926 276.853C29.456 275.84 28.9223 274.706 28.2795 273.433C28.2795 273.433 27.1818 270.352 25.3504 266.283C21.3722 257.423 13.9372 243.844 6.80553 247.137C0.0680041 250.218 7.92744 262.783 14.3072 271.261C15.4655 272.796 17.1392 274.87 18.8494 276.95H29.929Z" fill="#DFE1E2"/>
<path d="M25.7507 276.95C21.3176 269.005 13.9797 257.513 13.5855 256.895C13.5175 256.8 13.4157 256.736 13.3013 256.714C13.1869 256.692 13.0685 256.715 12.9705 256.778C12.8726 256.841 12.8025 256.939 12.7748 257.052C12.747 257.166 12.7637 257.285 12.8214 257.386C12.9184 257.532 20.1957 268.908 24.7076 276.95H25.7507Z" fill="#BDC3CB"/>
<path d="M29.3165 276.95H37.8066C37.8066 276.568 37.843 276.161 37.8491 275.737C37.8491 274.633 37.8491 273.384 37.8006 271.959C37.8006 271.959 38.0734 268.696 38.0916 264.239C38.1402 254.536 36.9758 239.108 29.1346 239.132C21.7239 239.132 23.6766 253.845 25.9811 264.196C26.7088 267.495 28.2067 272.978 29.3165 276.95Z" fill="#DFE1E2"/>
<path d="M33.3189 276.95H34.2285C33.7373 268.211 31.3722 251.619 31.257 250.818C31.2489 250.759 31.229 250.702 31.1985 250.651C31.1681 250.599 31.1276 250.555 31.0796 250.519C31.0316 250.483 30.977 250.458 30.9189 250.443C30.8609 250.429 30.8005 250.427 30.7415 250.436C30.6826 250.444 30.6257 250.463 30.5743 250.493C30.5229 250.523 30.4781 250.562 30.4424 250.61C30.4068 250.658 30.3811 250.712 30.3668 250.769C30.3526 250.827 30.3501 250.887 30.3595 250.946C30.3837 251.14 32.8155 268.15 33.3189 276.95Z" fill="#BDC3CB"/>
<path d="M101.928 116.883C101.928 116.883 93.1752 101.196 91.0475 97.8608C88.9199 94.5259 83.3712 81.2779 83.1737 80.755C82.9762 80.2321 86.9924 73.9628 86.0968 73.7486C85.2013 73.5344 84.2056 77.0529 83.2488 76.633C82.292 76.213 79.4969 67.7324 78.9517 68.1579C77.931 68.9423 80.4592 73.4148 79.9141 73.6958C79.3689 73.9767 77.7252 68.7782 76.6572 68.9312C75.5891 69.0841 78.6875 73.6957 78.3871 74.1046C78.0867 74.5135 74.8716 70.1661 74.2903 71.0923C73.9732 71.5958 77.2496 74.8862 76.6182 75.1949C75.9869 75.5037 73.0776 73.3787 72.7689 73.9906C72.4602 74.6025 75.464 75.4425 76.3623 77.0946C77.2607 78.7468 78.7876 79.4589 79.4218 82.5184C80.0559 85.578 81.0071 96.6453 84.2584 102.169C87.5097 107.693 94.6632 119.915 94.6632 119.915L101.928 116.883Z" fill="#A8BBC6"/>
<path d="M99.5055 111.804C99.5055 111.804 109.184 122.237 110.631 126.443C112.077 130.648 109.24 136.662 105.304 136.926C101.369 137.19 92.644 118.407 92.644 118.407L99.5055 111.804Z" fill="#FE7E02"/>
<path d="M145.099 187.339C144.395 186.75 143.544 187.017 141.099 185.885C140.36 185.597 139.598 185.37 138.822 185.206C138.77 185.196 138.723 185.171 138.685 185.135C138.648 185.099 138.621 185.053 138.607 185.003C137.862 182.188 134.608 169.185 134.249 165.435C133.885 161.6 131.412 145.342 131.034 142.87C131.029 142.83 131.014 142.792 130.993 142.758C130.971 142.724 130.942 142.695 130.909 142.674C130.875 142.652 130.837 142.638 130.797 142.632C130.757 142.627 130.716 142.63 130.678 142.642L123.572 144.622C123.501 144.64 123.44 144.686 123.402 144.749C123.365 144.812 123.354 144.887 123.372 144.959C123.811 146.906 126.542 159.063 127.343 165.221C127.983 170.131 135.295 185.879 135.442 186.886V186.914C135.464 187.06 135.538 187.194 135.65 187.291C135.763 187.388 135.906 187.442 136.054 187.442H143.973C144.276 187.445 145.321 187.531 145.099 187.339Z" fill="#89A0AD"/>
<path d="M129.279 135.855C125.499 124.384 121.269 124.874 121.269 124.874L124.54 148.986C126.876 148.349 129.916 146.928 132.247 146.269C131.473 142.642 130.211 138.678 129.279 135.855Z" fill="#D8700C"/>
<path d="M127.754 106.126C126.604 98.2732 119.82 92.6266 112.727 96.4373C111.132 97.3061 108.973 99.0435 107.87 100.515C104.89 104.519 104.13 109.465 101.053 113.354C102.356 114.383 103.735 115.301 105.178 116.099L107.093 113.424L106.435 116.762C111.196 119.149 117.921 121.106 127.121 121.063C128.276 115.601 128.368 110.308 127.754 106.126Z" fill="#F9B24E"/>
<path d="M130.33 273.241C129.24 272.44 128.361 271.908 124.882 270.22C124.657 270.112 123.831 269.583 123.533 269.402C122.724 268.866 121.994 268.22 121.364 267.483C120.741 266.788 120.443 264.557 120.304 262.78C120.663 258.808 126.423 195.124 127.63 188.238C128.881 181.123 126.973 170.267 126.973 170.267L122.523 168.598L114.099 197.822L114.764 220.074C114.764 220.074 112.783 226.471 112.539 230.318C112.294 234.164 115.406 265.255 115.406 265.255C115.427 266.173 115.372 267.092 115.239 268.001C115.011 269.163 113.735 271.558 114.321 272.654C114.908 273.75 115.573 274.022 115.573 274.022L130.725 274.267C131.54 274.264 130.995 273.733 130.33 273.241Z" fill="#89A0AD"/>
<path d="M107.335 167.975C107.335 167.975 102.075 175.913 100.821 182.483C99.5666 189.053 101.742 209.237 99.3302 217.846C98.0258 222.508 93.0834 229.703 92.3297 235.725C91.576 241.747 88.9644 259.125 88.9644 259.125C88.5694 260.95 87.9492 263.208 87.1454 264.257C86.6531 264.899 85.7548 265.711 85.1623 266.871C84.2417 268.679 84.7507 271.369 85.4405 272.848C85.7881 273.608 85.4154 273.608 86.2081 273.853C87.3496 274.187 88.574 274.092 89.6501 273.585C90.7262 273.078 91.5795 272.195 92.0488 271.102C92.7403 269.504 93.1289 267.791 93.1947 266.051C93.2656 264.244 93.5456 262.452 94.0291 260.71L110.845 219.454L123.021 183.851L126.139 165.513L107.335 167.975Z" fill="#A8BBC6"/>
<path d="M92.4938 269.917C88.8531 270.584 86.4334 268.448 85.1735 266.857C84.2473 268.668 83.7967 271.369 84.4754 272.854C85.0761 274.164 86.8283 274.125 88.2051 274.178C89.6652 274.231 90.7917 273.422 91.5148 272.148C91.9152 271.439 92.2432 270.691 92.4938 269.917Z" fill="#46535B"/>
<path d="M123.53 269.4C119.522 270.432 116.56 269.731 114.908 269.06C114.483 270.276 113.915 271.797 114.216 272.676C114.583 273.75 115.108 273.995 115.57 274.006C119.23 274.103 128.976 274.234 131.768 274.27C131.856 274.271 131.942 274.247 132.016 274.2C132.09 274.154 132.149 274.087 132.186 274.008C132.223 273.929 132.237 273.841 132.226 273.754C132.214 273.667 132.178 273.586 132.122 273.519C131.423 272.69 123.828 269.583 123.53 269.4Z" fill="#46535B"/>
<path d="M110.747 219.534L111.696 219.595H111.746L112.686 219.648H112.75L113.696 219.696H113.746C114.065 219.696 114.388 219.723 114.711 219.732C118.304 219.851 122.74 219.804 125.586 219.32C127.037 204.793 127.577 191.536 128.114 188.602C129.418 181.484 126.979 170.245 126.979 170.245L125.816 170.036L126.551 165.864L107.012 168.328C107.012 168.328 101.539 176.266 100.237 182.833C98.9353 189.4 101.194 209.591 98.6877 218.199C98.6822 218.224 104.261 219.095 110.747 219.534Z" fill="#46535B"/>
<path d="M111.596 122.813C111.596 122.813 104.629 122.368 101.861 125.38C99.0938 128.392 107.98 152.207 108.475 156.04C108.97 159.873 105.922 170.061 105.922 170.061C105.922 170.061 122.284 173.36 126.962 170.258C126.962 170.258 127.463 142.703 126.962 139.966C126.462 137.229 122.284 126.098 121.283 125.002C120.282 123.906 111.596 122.813 111.596 122.813Z" fill="#FE7E02"/>
<path d="M113.912 113.484C113.912 113.484 113.876 113.69 113.812 114.04C113.501 115.709 112.305 121.272 111.498 122.818C110.522 124.668 114.836 130.568 119.008 129.847C120.243 129.633 117.959 124.426 118.07 123.875C118.279 122.818 118.566 121.372 118.858 119.901L119.344 117.431C119.789 115.172 120.151 113.328 120.151 113.328L113.912 113.484Z" fill="#A8BBC6"/>
<path d="M113.812 114.04C113.876 113.69 113.913 113.484 113.913 113.484L120.143 113.328C120.143 113.328 119.781 115.172 119.336 117.431C119.18 118.218 119.013 119.058 118.852 119.887C117.736 119.688 116.702 119.169 115.876 118.393C114.845 117.488 114.069 116.33 113.623 115.033C113.701 114.641 113.765 114.299 113.812 114.04Z" fill="#89A0AD"/>
<path d="M118.107 99.2905C118.107 99.2905 115.17 98.9511 113.328 101.338C111.487 103.724 109.504 111.1 114.077 115.114C118.649 119.128 123.166 114.583 123.836 109.768C124.506 104.953 124.768 99.118 118.107 99.2905Z" fill="#A8BBC6"/>
<path d="M125.191 109.698C124.634 110.761 123.728 111.351 123.143 111.014C122.559 110.678 122.529 109.54 123.074 108.477C123.619 107.415 124.534 106.825 125.121 107.162C125.708 107.498 125.736 108.636 125.191 109.698Z" fill="#A8BBC6"/>
<path d="M118.435 98.5033C118.435 98.5033 114.513 105.518 111.707 105.844C108.901 106.169 108.531 109.896 108.531 109.896C108.531 109.896 109.535 101.304 112.313 99.6465C115.092 97.9888 118.435 98.5033 118.435 98.5033Z" fill="#F9B24E"/>
<path d="M112.441 107.607C112.669 108.853 112.21 109.996 111.418 110.157C110.625 110.319 109.793 109.445 109.565 108.21C109.337 106.975 109.796 105.821 110.589 105.657C111.382 105.493 112.213 106.361 112.441 107.607Z" fill="#A8BBC6"/>
<path d="M115.898 112.132L120.143 112.967C120.143 112.967 119.728 114.56 117.851 114.246C115.562 113.865 115.898 112.132 115.898 112.132Z" fill="white"/>
<path d="M256.377 89.6118C256.862 91.6208 257.741 94.7777 257.741 94.7777C257.672 95.6387 257.413 99.2607 257.109 103.689L263.621 101.083C263.621 101.083 263.541 93.868 263.833 93.426C264.077 93.0529 264.49 93.5178 266.485 90.6622C267.059 89.8385 267.171 88.3662 267.171 88.3662C267.171 88.3662 267.289 86.5524 266.884 86.383C266.692 86.3218 266.484 86.3299 266.298 86.406C266.111 86.482 265.957 86.6212 265.862 86.7992C265.716 87.112 265.753 87.841 265.607 88.1538C265.461 88.4667 264.516 88.8455 264.12 88.8254C263.724 88.8053 264.169 83.4643 264.169 83.4643C264.169 83.4643 264.393 81.9489 264.505 81.4553C264.6 81.0334 264.984 79.7936 264.984 79.7936C264.984 79.7936 265.435 77.997 264.878 77.8592C264.548 77.7789 263.71 79.2397 263.136 80.7895C262.516 82.4598 262.166 84.2334 261.988 84.2047C261.572 84.1502 261.793 81.2199 261.793 81.2199C261.793 81.2199 262.206 79.8797 262.198 79.2454C262.588 78.4705 262.846 77.0298 262.157 76.9121C262.031 76.8891 261.124 78.7173 261.124 78.7173C261.124 78.7173 260.765 80.0059 260.55 80.6058C260.183 81.6677 260.128 83.3437 259.936 84.0813C259.778 84.6984 259.649 84.4458 259.569 84.4716C259.488 84.4975 259.606 83.6422 259.706 82.4626C259.758 81.8886 259.706 81.1999 259.856 80.5311C260.001 79.8588 260.096 79.1768 260.143 78.4906C260.255 76.9752 259.299 77.1302 258.969 78.5164C258.846 79.0416 258.714 79.6185 258.582 80.204C258.068 82.4741 258.082 84.661 257.838 84.6811C257.52 84.7041 257.729 80.7206 257.729 80.7206C257.729 80.7206 257.241 78.5135 256.756 80.5598C256.408 82 256.243 83.4781 256.263 84.9595C256.294 85.5421 255.875 87.6143 256.377 89.6118Z" fill="#F9B24E"/>
<path d="M325.46 84.3482C324.972 86.3572 324.097 89.5141 324.097 89.5141C324.166 90.3751 324.421 93.9942 324.728 98.4111L318.217 95.8051C318.217 95.8051 318.294 88.5871 318.004 88.1452C317.757 87.7721 317.347 88.2399 315.35 85.3842C314.776 84.5577 314.667 83.0883 314.667 83.0883C314.667 83.0883 314.549 81.2773 314.954 81.108C315.145 81.0431 315.353 81.0492 315.54 81.125C315.727 81.2009 315.88 81.3416 315.972 81.5213C316.122 81.837 316.081 82.5659 316.231 82.8788C316.38 83.1916 317.318 83.5704 317.717 83.5503C318.116 83.5302 317.666 78.1864 317.666 78.1864C317.666 78.1864 317.445 76.6739 317.333 76.1774C317.238 75.7555 316.853 74.5157 316.853 74.5157C316.853 74.5157 316.4 72.7162 316.96 72.5784C317.287 72.4981 318.128 73.9589 318.702 75.5087C319.321 77.179 319.672 78.9526 319.849 78.9268C320.263 78.8694 320.045 75.942 320.045 75.942C320.045 75.942 319.628 74.5989 319.64 73.9675C319.25 73.1897 318.988 71.7519 319.677 71.6313C319.806 71.6112 320.713 73.4394 320.713 73.4394C320.713 73.4394 321.069 74.7252 321.287 75.3278C321.652 76.3897 321.709 78.0629 321.899 78.8034C322.059 79.4176 322.203 79.165 322.269 79.1909C322.335 79.2167 322.231 78.3643 322.128 77.1991C322.079 76.6107 322.145 75.9334 321.982 75.2647C321.835 74.5926 321.739 73.9106 321.695 73.2242C321.583 71.7088 322.536 71.8638 322.866 73.25C322.992 73.7781 323.124 74.3521 323.256 74.9375C323.767 77.2077 323.752 79.3975 323.999 79.4147C324.315 79.4376 324.105 75.4541 324.105 75.4541C324.105 75.4541 324.593 73.25 325.078 75.2963C325.426 76.7355 325.593 78.2126 325.575 79.6931C325.54 80.2757 325.945 82.3478 325.46 84.3482Z" fill="#F9B24E"/>
<path d="M307.653 254.17C307.653 254.17 311.263 258.648 312.161 259.199C313.059 259.75 311.759 266.25 309.311 266.678C307.931 266.919 307.162 265.398 307.162 265.398L307.558 263.526L302.392 258.211L307.653 254.17Z" fill="#F9B24E"/>
<path d="M289.056 255.267C289.056 255.267 292.067 260.166 292.887 260.826C293.708 261.486 291.587 267.771 289.105 267.88C287.705 267.943 287.136 266.339 287.136 266.339L287.771 264.531L283.334 258.602L289.056 255.267Z" fill="#F9B24E"/>
<path d="M292.707 260.633C292.707 260.633 290.985 262.838 290.035 263.716C289.152 264.513 288.225 265.26 287.26 265.954C287.26 265.954 285.495 269.157 285.013 270.277C283.936 272.765 282.717 275.54 282.906 276.932C282.961 277.38 283.965 277.853 284.803 277.595C288.29 276.524 297.204 268.368 298.332 266.178C299.629 263.656 292.707 260.633 292.707 260.633Z" fill="#FE7E02"/>
<path d="M267.26 186.003C267.584 185.096 267.894 184.258 268.193 183.469C271.903 184.278 276.09 185.168 280.401 186.086L280.926 201.871C280.926 200.651 277.686 227.061 277.686 227.061C277.686 227.061 286.057 245.601 291.786 256.403C289.435 259.336 288.342 260.283 284.929 262.281C276.033 251.625 264.404 232.123 263.922 228.88C263.644 227.026 263.394 196.877 267.26 186.003Z" fill="#262F34"/>
<path d="M300.358 190.569C299.21 202.878 296.707 226.403 296.914 228.297C297.545 230.657 308.752 252.428 310.769 255.597C309.168 258.01 306.688 260.616 304.022 261.337C303.497 261.48 285.004 235.16 283.994 233.073C282.846 230.711 280.955 217.828 280.923 201.882L280.398 186.097C287.578 187.619 294.179 189.12 300.358 190.569Z" fill="#3A4B54"/>
<path d="M276.782 134.469L285.234 135.617C285.234 135.617 291.995 135.741 292.833 135.741C293.671 135.741 298.992 166.613 300.53 178.216C302.068 189.82 300.874 191.872 300.874 191.872C300.874 191.872 290.161 194.283 282.22 193.594C273.975 192.865 264.714 188.413 264.714 188.413C264.714 188.413 271.76 166.119 273.157 159.157C274.555 152.194 276.782 134.469 276.782 134.469Z" fill="#A8BBC6"/>
<path d="M256.292 97.1254C256.292 97.1254 255.749 120.111 256.616 121.867C257.879 124.425 272.067 142.56 272.067 142.56C272.067 142.56 265.288 170.93 262.439 180.731C262.152 181.718 260.88 188.089 260.88 188.712C260.88 190.09 266.878 191.837 267.59 191.734C268.227 191.639 273.459 164.656 276.799 151.451C277.934 146.976 279.879 142.746 282.539 138.972L284.861 135.672L267.033 117.803C267.033 117.803 264.838 97.9146 264.838 96.2787C264.829 95.8281 257.158 95.5038 256.292 97.1254Z" fill="#46535B"/>
<path d="M292.537 135.755L314.767 113.102C314.767 113.102 317.864 91.681 318.085 90.8745C318.305 90.0681 323.824 89.6548 326.045 89.4395C326.76 89.3707 325.672 112.256 324.611 116.09C323.354 120.622 306.551 141.271 306.551 141.271C306.551 141.271 303.54 152.464 304.255 160.655C305.457 174.282 308.706 193.023 308.123 193.611C304.51 195.887 290.646 196.131 289.756 194.716C280.088 179.106 292.537 135.755 292.537 135.755Z" fill="#46535B"/>
<path d="M311.957 259.018C311.957 259.018 310.523 261.426 309.702 262.416C308.928 263.322 308.104 264.185 307.234 264.999C307.234 264.999 305.894 268.402 305.558 269.573C304.812 272.179 303.965 275.313 304.318 276.685C304.43 277.121 305.388 277.954 306.181 277.44C309.24 275.448 317.407 266.124 318.234 263.808C319.21 261.13 311.957 259.018 311.957 259.018Z" fill="#FE7E02"/>
<path d="M285.856 106.24C286.802 106.28 287.749 106.261 288.692 106.183C289.756 106.088 291.117 106.022 291.897 106.183C293.542 106.53 296.15 107.695 297.02 109.851C298.105 112.537 301.982 112.147 297.387 122.318C292.19 133.844 286.112 130.067 286.029 129.812C285.945 129.556 283.024 120.054 283.024 120.054C283.024 120.054 279.391 123.658 279.451 123.498C279.511 123.337 274.5 105.83 285.856 106.24Z" fill="#FE7E02"/>
<path d="M285.363 131.445L284.757 135.953C284.757 135.953 283.4 142.451 285.145 143.702C286.889 144.954 292.569 135.77 292.569 135.77L291.969 124.341L285.363 131.445Z" fill="#F9B24E"/>
<path d="M292.147 128.046C290.712 131.944 287.268 134.337 284.835 135.267L285.348 131.444L291.949 124.341L292.147 128.046Z" fill="#CD8F38"/>
<path d="M289.98 111.421C289.215 110.991 288.364 110.735 287.489 110.668C286.614 110.602 285.735 110.728 284.913 111.037C284.091 111.345 283.347 111.83 282.732 112.457C282.118 113.083 281.647 113.836 281.354 114.664C280.713 116.492 280.19 118.359 279.787 120.254C278.699 125.42 280.404 130.951 282.746 131.396C285.087 131.841 292.199 129.728 293.843 122.43C294.856 117.924 293.398 113.375 289.98 111.421Z" fill="#F9B24E"/>
<path d="M292.007 122.682C291.788 123.83 292.365 124.892 293.295 125.07C294.225 125.248 295.155 124.465 295.373 123.322C295.591 122.18 295.017 121.115 294.087 120.938C293.157 120.76 292.225 121.54 292.007 122.682Z" fill="#F9B24E"/>
<path d="M294.087 120.938C294.087 120.938 291.18 120.596 290.838 118.515C290.497 116.435 288.365 111.415 283.308 111.254C278.251 111.094 288.654 109.024 289.013 109.159C289.372 109.294 293.682 110.881 293.682 110.881C293.682 110.881 295.978 114.859 295.978 115.203C295.978 115.548 295.709 119.178 295.709 119.178L294.087 120.938Z" fill="#FE7E02"/>
<path d="M264.773 40.1277C264.773 40.1277 275.471 50.1574 305.519 54.4818C305.519 54.4818 271.338 60.7901 258.486 60.4024L257.014 39.1448L264.773 40.1277Z" fill="#D3700F"/>
<path d="M268.633 51.4012C265.948 55.1057 262.485 58.1771 258.487 60.3997L257.719 49.3143L258.817 44.2187L268.633 51.4012Z" fill="#A35810"/>
<path d="M226.536 21.2409C226.536 21.2409 261.942 25.196 267.022 28.1767L268.633 51.4012C268.633 51.4012 249.033 46.095 228.467 49.0624L226.536 21.2409Z" fill="#FE7E02"/>
<path d="M198.229 264.827C198.229 264.827 196.214 270.789 196.213 270.806C196.069 271.747 195.492 274.065 195.502 274.925C195.55 278.136 209.923 271.988 206.672 270.617C206.376 270.493 205.442 269.467 205.327 268.388C205.155 266.706 206.491 264.576 206.491 264.576L198.229 264.827Z" fill="#46535B"/>
<path d="M166.281 260.75C166.281 260.75 162.984 272.02 162.983 272.037C162.839 272.977 162.262 275.296 162.272 276.156C162.321 279.367 176.693 273.219 173.443 271.848C173.147 271.723 172.213 270.698 172.098 269.618C171.926 267.936 173.261 265.807 173.261 265.807L166.281 260.75Z" fill="#46535B"/>
<path d="M194.736 152.292C194.736 152.292 198.252 162.383 198.289 162.539C202.317 179.276 213.499 211.116 213.624 214.424C213.934 222.461 206.806 265.569 206.806 265.569L197.614 266.655L197.99 217.011L189.16 199.192L174.102 163.388L194.736 152.292Z" fill="#D8700C"/>
<path d="M166.915 168.67L167.575 178.875L172.696 220.308L164.7 263.931C164.7 263.931 168.534 269.075 172.365 269.005L190.455 221.836L195.276 165.895L191.898 154.537L166.915 168.67Z" fill="#FE7E02"/>
<path d="M194.588 276.352L196.275 270.749C196.275 270.749 199.776 272.171 201.513 271.9C203.25 271.63 206.632 270.596 206.632 270.596C213.611 272.782 219.318 273.81 218.309 275.66L194.588 276.352Z" fill="#262F34"/>
<path d="M161.358 277.583L163.045 271.98C163.045 271.98 166.547 273.401 168.283 273.131C170.02 272.861 173.402 271.827 173.402 271.827C180.381 274.013 186.089 275.041 185.08 276.891L161.358 277.583Z" fill="#262F34"/>
<path d="M227.711 127.348L231.83 131.879C232.878 131.336 235.433 128.708 236.906 128.014L233.388 122.457C233.235 122.296 233.126 122.097 233.073 121.881C233.02 121.665 233.024 121.438 233.085 121.224C233.146 120.979 233.23 120.741 233.338 120.512C233.54 120.159 233.743 119.737 233.949 119.379C234.156 119.021 233.388 118.107 232.938 117.888C232.489 117.668 232.003 119.454 231.7 119.956C230.785 121.487 229.232 125.797 228.959 126.51L227.711 127.348Z" fill="#1F2B33"/>
<path d="M232.421 131.505C231.335 129.831 229.587 128.684 228.441 126.94L204.588 137.716C204.588 137.716 191.688 115.359 181.54 120.623C183.867 126.741 186.591 132.701 189.694 138.464C193.923 146.192 201.659 150.913 203.417 150.459C205.417 149.949 231.848 131.998 232.421 131.505Z" fill="#A8BBC6"/>
<path d="M148.405 66.1941C148.771 68.1906 149.452 71.3521 149.452 71.3521C149.333 72.201 148.873 75.7444 148.318 80.09L154.878 77.8972C154.878 77.8972 155.215 70.7875 155.528 70.3691C155.792 70.0156 156.174 70.4858 158.301 67.8004C158.914 67.0208 159.104 65.5769 159.104 65.5769C159.104 65.5769 159.326 63.7996 158.936 63.6105C158.751 63.536 158.546 63.5302 158.357 63.594C158.168 63.6579 158.008 63.7873 157.907 63.9588C157.742 64.2597 157.739 64.98 157.575 65.2809C157.41 65.5819 156.463 65.897 156.074 65.8579C155.686 65.8188 156.43 60.5831 156.43 60.5831C156.43 60.5831 156.734 59.1033 156.873 58.6195C156.992 58.2114 157.445 57.0129 157.445 57.0129C157.445 57.0129 157.992 55.2689 157.452 55.1006C157.13 55.003 156.221 56.3932 155.567 57.8862C154.861 59.4941 154.4 61.2142 154.241 61.1855C153.834 61.1119 154.21 58.2318 154.21 58.2318C154.21 58.2318 154.693 56.9341 154.72 56.3116C155.137 55.5673 155.489 54.1668 154.817 54.0086C154.691 53.9859 153.695 55.728 153.695 55.728C153.695 55.728 153.269 56.9766 153.029 57.5551C152.606 58.581 152.456 60.2271 152.225 60.9429C152.033 61.5384 151.906 61.2838 151.841 61.3031C151.775 61.3223 151.925 60.4902 152.091 59.3501C152.176 58.7746 152.15 58.1029 152.349 57.4549C152.528 56.801 152.658 56.135 152.74 55.4622C152.937 53.9772 151.99 54.0746 151.586 55.4205C151.431 55.9324 151.268 56.4936 151.104 57.0575C150.47 59.2664 150.358 61.4225 150.117 61.4243C149.802 61.4296 150.237 57.5201 150.237 57.5201C150.237 57.5201 149.883 55.3193 149.289 57.3065C148.865 58.7038 148.616 60.1483 148.547 61.607C148.565 62.1784 148.045 64.1986 148.405 66.1941Z" fill="#46535B"/>
<path d="M186.858 91.6223C186.858 91.6223 184.108 87.991 181.533 92.0237C181.533 92.0237 179.777 90.7716 178.397 92.71C178.397 92.71 175.177 91.3979 174.094 96.8076C174.094 96.8076 172.426 96.3448 172.087 98.5631C171.877 99.8611 172.09 101.2 172.687 102.339C172.687 102.339 171.698 103.069 172.02 105.152C172.294 106.923 173.58 107.272 173.58 107.272C173.58 107.272 173.774 110.239 174.873 111.207C175.972 112.174 177.56 111.846 177.56 111.846C177.56 111.846 177.891 113.467 179.235 113.412C180.578 113.358 182.31 112.052 183.772 112.782C185.235 113.511 189.156 113.096 189.156 113.096C189.156 113.096 193.63 111.218 192.586 106.155C192.586 106.155 195.001 104.001 193.151 101.105C193.151 101.105 194.852 96.8764 192.079 94.131C189.307 91.3857 186.858 91.6223 186.858 91.6223Z" fill="#262F34"/>
<path d="M191.718 124.095L185.072 119.003C185.072 119.003 178.392 118.777 177.567 118.727C176.742 118.677 169.746 148.73 167.558 160.065C165.369 171.399 166.433 173.493 166.433 173.493C166.433 173.493 176.845 176.479 184.691 176.242C192.85 175.997 202.236 172.147 202.236 172.147C202.236 172.147 196.58 149.789 195.602 142.854C194.624 135.92 191.718 124.095 191.718 124.095Z" fill="#F9B24E"/>
<path d="M177.87 118.706L157.283 95.1234C157.283 95.1234 155.472 73.8553 155.293 73.0457C155.114 72.2362 149.713 71.5152 147.534 71.1724C146.836 71.0633 146.582 93.6571 147.421 97.497C148.399 102.032 163.758 123.327 163.758 123.327C163.758 123.327 166.082 134.513 164.896 142.549C162.927 155.896 158.652 174.163 159.192 174.777C162.619 177.225 176.258 178.261 177.204 176.92C187.643 162.106 177.87 118.706 177.87 118.706Z" fill="#A8BBC6"/>
<path d="M185.149 114.947L185.482 119.362C185.482 119.362 186.436 125.753 184.663 126.871C182.889 127.989 177.873 118.74 177.873 118.74L179.106 107.671L185.149 114.947Z" fill="#46535B"/>
<path d="M178.704 111.256C179.891 115.125 183.103 117.649 185.428 118.688L185.144 114.943L179.109 107.669L178.704 111.256Z" fill="#1F2B33"/>
<path d="M177.318 93.3913C177.262 94.3618 178.384 95.2175 179.83 95.3034C181.276 95.3892 182.489 94.6671 182.545 93.6965C182.602 92.726 181.477 91.867 180.034 91.7817C178.591 91.6963 177.375 92.418 177.318 93.3913Z" fill="#262F34"/>
<path d="M183.723 96.2354C184.549 96.0089 185.415 95.9661 186.26 96.11C187.104 96.2539 187.907 96.5811 188.611 97.0686C189.316 97.556 189.905 98.1918 190.338 98.9313C190.77 99.6709 191.035 100.496 191.115 101.349C191.284 103.227 191.333 105.114 191.262 106.998C191.054 112.121 188.117 116.947 185.793 116.812C183.468 116.678 177.238 112.989 177.431 105.709C177.547 101.217 180.026 97.272 183.723 96.2354Z" fill="#46535B"/>
<path d="M179.109 106.383C179.046 107.502 178.242 108.386 177.321 108.321C176.4 108.256 175.701 107.308 175.769 106.178C175.837 105.049 176.636 104.178 177.558 104.24C178.479 104.302 179.175 105.256 179.109 106.383Z" fill="#46535B"/>
<path d="M193.038 94.2758C195.095 96.3176 195.699 99.2571 194.387 100.839C193.075 102.421 190.349 102.05 188.292 100.008C186.235 97.9667 185.634 95.0277 186.943 93.4455C188.253 91.8633 190.984 92.2346 193.038 94.2758Z" fill="#262F34"/>
<path d="M187.573 95.4693C187.523 96.3082 186.488 96.907 185.257 96.8346C184.027 96.7622 183.067 96.0349 183.114 95.2097C183.162 94.3844 184.2 93.7692 185.43 93.8416C186.661 93.914 187.62 94.6413 187.573 95.4693Z" fill="#262F34"/>
<path d="M193.832 102.216C193.806 102.591 193.669 102.95 193.439 103.247C193.21 103.545 192.897 103.767 192.541 103.887C192.185 104.008 191.801 104.02 191.438 103.922C191.075 103.825 190.749 103.622 190.501 103.34C190.253 103.057 190.094 102.708 190.044 102.335C189.994 101.963 190.055 101.584 190.22 101.246C190.385 100.908 190.646 100.627 190.971 100.437C191.295 100.248 191.668 100.158 192.044 100.18C192.551 100.213 193.024 100.446 193.36 100.828C193.695 101.209 193.865 101.709 193.832 102.216Z" fill="#262F34"/>
<path d="M197.013 129.706C197.013 129.706 202.842 155.586 204.929 164.714C205.155 165.702 206.041 172.051 206.004 172.661C205.926 174.018 199.92 175.395 199.225 175.252C198.603 175.126 195.001 148.252 192.471 135.059C191.612 130.588 189.943 126.312 187.545 122.443L185.579 120.109L185.486 119.354C185.486 119.354 195.648 122.148 197.013 129.706Z" fill="#A8BBC6"/>
<path d="M227.185 16.7843L225.279 16.9167L237.17 188.159L239.076 188.027L227.185 16.7843Z" fill="#13375B"/>
<path d="M238.185 126.034C238.179 125.646 238.134 125.259 238.052 124.88C237.975 124.48 237.822 124.098 237.602 123.755C237.489 123.529 237.42 123.282 237.4 123.029C237.382 122.926 237.351 122.825 237.307 122.73C237.174 122.464 237 122.221 236.789 122.012C236.56 121.762 236.377 121.473 236.248 121.159C236.106 120.842 235.887 120.565 235.61 120.354C235.336 120.152 235.09 120.105 234.963 120.274C234.307 121.043 231.302 123.333 232.084 124.842C232.732 126.106 233.629 127.461 233.769 128.029C233.954 128.806 235.064 128.953 235.766 128.822C237.078 128.567 238.19 127.963 238.185 126.034Z" fill="#46535B"/>
</svg>
